<svg width="16" height="16" viewBox="0 0 16 16" fill="none" xmlns="http://www.w3.org/2000/svg">
<g clip-path="url(#clip0_2001_8)">
<path d="M11.0301 10.7566L12.246 9.12845C14.9588 5.49585 14.9365 2.03186 14.8083 0.742136C14.795 0.602363 14.72 0.471135 14.6047 0.381678C14.4886 0.292292 14.3436 0.254705 14.2064 0.27809C12.9348 0.495075 9.60116 1.39466 6.88589 5.03055L5.66965 6.65916L5.19334 6.61319C4.2748 6.52529 3.41063 6.89175 2.88815 7.59138L1.43687 9.53473C1.35092 9.64982 1.3401 9.80875 1.40882 9.94747C1.47829 10.0861 1.61624 10.1819 1.76775 10.1966L3.30945 10.3533C3.74214 10.3977 4.16295 10.5658 4.51922 10.8382L5.29553 11.4317L4.59222 12.3734C4.46284 12.5467 4.5097 12.8029 4.69653 12.9457L5.31811 13.4209C5.50495 13.5637 5.76129 13.5394 5.89068 13.3661L6.59399 12.4244L7.36985 13.0175C7.72613 13.2899 8.00198 13.6531 8.16186 14.0637L8.73135 15.5203C8.78674 15.6638 8.91544 15.7719 9.06624 15.8017C9.2169 15.8306 9.36505 15.7767 9.451 15.6616L10.9023 13.7183C11.4242 13.0195 11.5361 12.0779 11.2027 11.2074L11.0301 10.7566ZM10.2553 6.15688C9.61056 5.66394 9.44843 4.77986 9.89389 4.18336C10.3397 3.58645 11.2242 3.5032 11.869 3.99613C12.5133 4.48873 12.6757 5.3724 12.23 5.96931C11.7845 6.5658 10.8996 6.64947 10.2553 6.15688Z" fill="#A1F01B"/>
</g>
<defs>
<clipPath id="clip0_2001_8">
<rect width="16" height="16" fill="white"/>
</clipPath>
</defs>
</svg>
