<svg width="50" height="50" viewBox="0 0 50 50" fill="none" xmlns="http://www.w3.org/2000/svg">
<path d="M43 0C46.866 0 50 3.13401 50 7V43C50 46.866 46.866 50 43 50H7C3.13401 50 1.61069e-08 46.866 0 43V7C0 3.13401 3.13401 1.61064e-08 7 0H43ZM37.4209 9.63477C34.588 10.1182 27.1613 12.1219 21.1123 20.2217L18.4033 23.8506L17.3418 23.748C15.2955 23.5522 13.37 24.3682 12.2061 25.9268L8.97363 30.2568C8.7822 30.5132 8.75806 30.8668 8.91113 31.1758C9.06586 31.4845 9.37262 31.6975 9.70996 31.7305L13.1445 32.0801C14.1084 32.1789 15.0462 32.5534 15.8398 33.1602L17.5693 34.4824L16.0029 36.5801C15.7147 36.9661 15.8191 37.5373 16.2354 37.8555L17.6201 38.9141C18.0363 39.232 18.6073 39.1779 18.8955 38.792L20.4619 36.6943L22.1904 38.0156C22.9841 38.6224 23.5989 39.431 23.9551 40.3457L25.2236 43.5908C25.347 43.9104 25.6338 44.1515 25.9697 44.2178C26.3053 44.2824 26.6356 44.1625 26.8271 43.9062L30.0605 39.5762C31.2229 38.0194 31.4721 35.9216 30.7295 33.9824L30.3447 32.9785L33.0537 29.3516C39.0973 21.2589 39.0473 13.5412 38.7617 10.668C38.732 10.3568 38.5653 10.0644 38.3086 9.86523C38.05 9.6661 37.7267 9.58267 37.4209 9.63477ZM27.8135 18.335C28.8066 17.0052 30.7775 16.8198 32.2139 17.918C33.649 19.0154 34.0106 20.9838 33.0176 22.3135C32.0252 23.6421 30.0545 23.8285 28.6191 22.7314C27.1828 21.6334 26.8213 19.6638 27.8135 18.335Z" fill="#A1F01B"/>
</svg>
